<?xml version="1.0" encoding="utf-8"?>
<!-- Generator: Adobe Illustrator 16.0.4, SVG Export Plug-In . SVG Version: 6.00 Build 0)  -->
<!DOCTYPE svg PUBLIC "-//W3C//DTD SVG 1.1//EN" "http://www.w3.org/Graphics/SVG/1.1/DTD/svg11.dtd">
<svg version="1.1" id="Layer_1" xmlns="http://www.w3.org/2000/svg" xmlns:xlink="http://www.w3.org/1999/xlink" x="0px" y="0px"
	 width="75.653px" height="22.179px" viewBox="0 0 75.653 22.179" enable-background="new 0 0 75.653 22.179" xml:space="preserve">
<g>
	<path fill="#FFFFFF" d="M23.481,0.287c0,0.021,0.079,0.099,0.236,0.236v0.092c-0.116,0.144-0.564,0.352-1.343,0.625l-0.092-0.051
		c-0.403,0.308-0.93,0.547-1.579,0.718c0,0.034-0.017,0.051-0.051,0.051c-0.219,0-0.81,0.208-1.774,0.626
		c-0.082,0-0.465,0.16-1.148,0.481c-0.485,0.219-0.837,0.346-1.056,0.38c-0.889,0.417-1.941,0.864-3.158,1.343l0.041,0.093v0.092
		c-0.027,0.103-0.123,0.154-0.287,0.154h-0.041l-0.103-0.052c0,0.034-0.014,0.082-0.041,0.144l-0.103-0.051h-0.092L12.94,5.27v0.041
		c-0.157,0-0.718,0.209-1.682,0.626l-2.256,0.81c-0.314,1.17-0.824,2.704-1.528,4.604h0.051c1.012-0.424,1.808-0.711,2.389-0.861
		c0.731-0.417,1.753-0.882,3.066-1.395c0,0.034,0.017,0.052,0.051,0.052c0-0.082,0.639-0.339,1.917-0.77
		c0.793-0.376,1.384-0.567,1.774-0.574h0.041l0.338,0.051l-0.051-0.092c0.376-0.198,0.632-0.297,0.769-0.297
		c-0.027,0.096-0.123,0.143-0.287,0.143V7.66h0.195c0.294-0.13,0.55-0.194,0.769-0.194l0.041,0.102
		c0.185-0.047,0.314-0.095,0.39-0.143h0.041v0.184h0.051l0.144-0.092H19.4v0.092c-0.055,0-0.133,0.052-0.236,0.154l0.051,0.092
		c0,0.131-0.561,0.369-1.682,0.719v0.051h0.144c0.458-0.13,0.731-0.226,0.82-0.287l0.092,0.041c0-0.041,0.048-0.089,0.144-0.144
		l0.195,0.103c0-0.096,0.031-0.144,0.092-0.144h0.051c0,0.048,0.048,0.109,0.144,0.185c-0.062,0-0.444,0.178-1.148,0.533
		c-0.704,0.294-1.138,0.451-1.302,0.472v0.052h0.103c0.034,0,0.082-0.018,0.144-0.052l0.195,0.052
		c0.198-0.034,0.451-0.113,0.759-0.236l0.051,0.092v0.052l-0.482,0.144c0-0.034-0.014-0.051-0.041-0.051
		c0,0.034-0.017,0.051-0.051,0.051l0.051,0.092v0.052c-0.068,0-0.455,0.191-1.159,0.574c-0.103,0-0.42,0.161-0.954,0.481v0.041
		h0.051l0.236-0.041c-0.185,0.158-0.359,0.236-0.523,0.236l0.041,0.092v0.052l-0.144-0.093c-0.075,0.062-0.154,0.093-0.236,0.093
		l0.051,0.093v0.051l-0.144-0.092h-0.103v0.092h-0.144v-0.092c0.021,0,0.229-0.082,0.625-0.246v-0.041h-0.092
		c-0.656,0.191-1.6,0.557-2.83,1.097v0.093h0.051c0.075,0,0.202-0.048,0.379-0.145v0.052c0,0.055-0.256,0.182-0.769,0.38
		c0,0.164-0.861,0.563-2.584,1.199c0-0.027-0.017-0.041-0.051-0.041c-0.144,0.212-0.653,0.435-1.528,0.666
		c-1.251,0.473-1.876,0.76-1.876,0.861c-0.861,1.758-1.292,2.666-1.292,2.729h0.051l5.219-2.01c0,0.034,0.017,0.051,0.051,0.051
		c0-0.103,0.383-0.28,1.148-0.533c1.217-0.54,2.047-0.857,2.492-0.953c0.055,0.034,0.12,0.051,0.195,0.051
		c0.034,0,0.082-0.017,0.144-0.051l0.092,0.051c0.41-0.13,0.762-0.273,1.056-0.431l0.051,0.093c-0.13,0.048-0.195,0.096-0.195,0.143
		h0.092l0.144-0.092l0.144,0.092c0.116-0.061,0.246-0.092,0.39-0.092c-0.034,0.191-0.082,0.287-0.144,0.287l-0.051-0.103h0.092
		c0-0.062-0.031-0.093-0.092-0.093c0,0.082-0.065,0.147-0.195,0.195l0.103,0.185c-0.383,0.171-0.8,0.396-1.251,0.677
		c-0.889,0.294-1.336,0.485-1.343,0.574h0.051l1.487-0.574h0.092l0.092,0.144c0,0.082-0.144,0.144-0.431,0.185l0.051,0.103
		c-0.164,0.116-0.834,0.421-2.01,0.913c0,0.061,0.048,0.092,0.144,0.092c0.813-0.321,1.244-0.482,1.292-0.482l0.051,0.104
		l-2.635,1.291l-2.02,0.954c-0.267,0-0.998,0.239-2.194,0.718c0,0.068-0.273,0.246-0.82,0.533v0.041
		c0.13-0.027,0.243-0.075,0.338-0.144h0.041v0.103c-0.191,0.062-0.287,0.14-0.287,0.236c-0.027,0-0.041-0.018-0.041-0.052
		c-0.13,0.034-0.243,0.052-0.338,0.052l0.051,0.092v0.051l-0.144-0.092H5.414c0,0.185-0.4,0.39-1.2,0.615
		c-1.053,0.403-1.579,0.677-1.579,0.82C2.43,21.878,2.256,22.1,2.112,22.127l-0.246-0.041c0,0.062-0.031,0.093-0.092,0.093H1.682
		c0-0.109-0.161-0.253-0.482-0.431c0-0.041-0.082-0.106-0.246-0.195c0-0.157-0.048-0.235-0.144-0.235l-0.328,0.194H0.431v-0.102
		c0.171-0.281,0.284-0.521,0.338-0.719c0-0.116-0.13-0.194-0.39-0.235l-0.041-0.103l0.041-0.092C0.222,20.152,0.096,19.96,0,19.688
		v-0.093c0.082-0.13,0.53-0.355,1.343-0.677c0.068-0.253,0.212-0.51,0.431-0.77h0.051l-0.051-0.092
		c0.602-0.752,0.984-1.47,1.148-2.153c-0.13,0.034-0.243,0.082-0.338,0.144c-0.355-0.116-0.704-0.39-1.046-0.82
		c-0.485-0.513-0.728-0.848-0.728-1.005l-0.041-0.235c0.451-0.355,1.743-0.852,3.876-1.487c0.137,0,0.472-0.782,1.005-2.349
		c0.226-0.437,0.369-0.803,0.431-1.097l0.103-0.052L6.132,8.911c0.075,0,0.219-0.434,0.431-1.303
		C6.405,7.711,6.279,7.762,6.183,7.762H6.04C5.37,7.502,4.953,7.26,4.789,7.034V6.993c0-0.123,0.8-0.443,2.399-0.963l0.236-0.328
		V5.506L7.332,5.363C7.338,5.301,7.369,5.27,7.424,5.27c0,0.028,0.017,0.041,0.051,0.041C7.557,5.155,7.622,5.076,7.67,5.076
		c0.144,0,0.461,0.144,0.954,0.431h0.051c2.256-0.766,5.879-2.156,10.869-4.173C21.608,0.636,22.921,0.287,23.481,0.287z
		 M12.315,15.852c0.007,0.069,0.038,0.104,0.092,0.104l0.051-0.104H12.315z M14.807,14.991v0.052c0,0.062-0.031,0.093-0.092,0.093
		h-0.246C14.468,15.06,14.581,15.012,14.807,14.991z M15.955,10.542v0.041c0,0.068-0.031,0.102-0.092,0.102h-0.144v-0.102
		C15.822,10.583,15.9,10.569,15.955,10.542z M16.622,7.947c0.014,0.068,0.048,0.103,0.103,0.103l0.041-0.103H16.622z M17.011,8.767
		v0.041h0.041l0.246-0.041V8.665h-0.051C17.145,8.733,17.066,8.767,17.011,8.767z M18.303,9.054h0.144
		c0,0.068-0.079,0.116-0.236,0.144V9.147C18.218,9.084,18.249,9.054,18.303,9.054z"/>
	<path fill="#FFFFFF" d="M31.808,3.137c0.096,0.041,0.147,0.082,0.154,0.123C31.92,3.268,31.9,3.289,31.9,3.323
		c0.191,0,0.321,0.071,0.39,0.215c0.034,0,0.065,0.027,0.092,0.082l-0.154,0.123h0.031l0.062-0.031
		c0.123,0.028,0.185,0.09,0.185,0.186c-0.068,0.061-0.25,0.123-0.543,0.184c-0.041-0.02-0.072-0.03-0.092-0.03v0.144
		c0.055-0.041,0.157-0.089,0.308-0.144c0.116,0.021,0.174,0.048,0.174,0.082c-0.068,0.068-0.229,0.13-0.482,0.185
		c0,0.034-0.191,0.086-0.574,0.154H31.09c0,0.027-0.051,0.068-0.154,0.123h0.092v0.051l-0.185,0.031v0.03h0.215v0.062
		c-0.39,0.103-0.591,0.154-0.605,0.154v0.03h0.062l0.174-0.03l0.031,0.061v0.031c-0.465,0.082-1.169,0.243-2.112,0.482
		c-0.547,0.157-1.251,0.338-2.112,0.543l-0.031-0.062c0.15-0.062,0.383-0.123,0.697-0.185V5.762H27.07
		c-0.561,0.138-0.851,0.22-0.872,0.246c0.021,0.041,0.031,0.072,0.031,0.093c-0.103,0-0.222,0.191-0.359,0.574
		c-0.39,0.93-1.576,2.577-3.558,4.942c-0.978,1.162-2.307,2.912-3.989,5.25c-0.191,0.287-0.393,0.629-0.605,1.025l-0.113-0.092
		h-0.062l-0.092,0.061c-0.041-0.074-0.062-0.153-0.062-0.235c0.021,0,0.031-0.011,0.031-0.03c-0.103,0-0.154-0.082-0.154-0.246
		c0.021,0,0.031-0.011,0.031-0.031h-0.062l-0.092,0.062c-0.034-0.082-0.051-0.191-0.051-0.328c0.014,0,0.021-0.011,0.021-0.03
		l-0.051-0.031v0.123h-0.123c-0.041,0-0.062-0.021-0.062-0.062v-0.03l0.031-0.216c-0.041,0-0.062-0.03-0.062-0.093
		c0.062-0.246,0.202-0.516,0.42-0.81c0.103-0.198,0.243-0.339,0.42-0.421l0.062-0.092V15.36h-0.062c0-0.067,0.181-0.358,0.543-0.871
		l0.123-0.123v-0.031l-0.031-0.061l0.123-0.062l-0.031-0.061V14.12c0.219-0.308,0.379-0.468,0.482-0.482l0.031-0.061
		c-0.021-0.034-0.031-0.065-0.031-0.093c0.089,0,0.198-0.099,0.328-0.298c-0.021-0.033-0.031-0.074-0.031-0.123h0.062l0.062,0.031
		c0-0.034,0.181-0.263,0.543-0.688l0.79-1.086l-0.031-0.062c0.362-0.484,0.725-0.919,1.087-1.302c0.055,0,0.273-0.212,0.656-0.636
		L22.518,9.3V9.27l-0.062-0.093c0.239-0.321,0.369-0.481,0.39-0.481c0.041,0.02,0.072,0.03,0.092,0.03
		c0-0.089,0.15-0.311,0.451-0.667l-0.031-0.061c0.103-0.157,0.226-0.287,0.369-0.391c-0.021-0.041-0.031-0.071-0.031-0.092
		c0.021,0,0.14-0.119,0.359-0.359l0.031,0.062c-0.021,0-0.092,0.089-0.215,0.266h0.031c0.068-0.02,0.239-0.272,0.513-0.758V6.675
		c-0.055,0-0.082-0.03-0.082-0.093h-0.031c-0.041,0.041-0.253,0.09-0.636,0.145c-1.135,0.362-2.331,0.697-3.589,1.004
		c-0.438,0.172-1.012,0.343-1.723,0.514c-0.027-0.082-0.058-0.123-0.092-0.123l-0.144,0.03c0-0.021-0.01-0.03-0.031-0.03
		l0.031-0.154c-0.109-0.178-0.181-0.267-0.215-0.267l-0.092-0.093V7.455c-0.089,0-0.219-0.171-0.39-0.513
		c-0.041,0-0.062-0.021-0.062-0.062c0.103-0.082,0.526-0.212,1.271-0.39c1.128-0.403,3.148-0.957,6.06-1.661
		C28.95,3.702,31.322,3.137,31.808,3.137z M23.092,8.573h0.031c0.034,0,0.075-0.041,0.123-0.123V8.418
		C23.191,8.418,23.14,8.469,23.092,8.573z M23.307,8.295v0.031c0.034-0.021,0.062-0.031,0.082-0.031V8.245h-0.031
		C23.324,8.245,23.307,8.261,23.307,8.295z M27.224,5.732v0.03h0.062c0.062-0.041,0.113-0.061,0.154-0.061V5.67h-0.031
		C27.34,5.711,27.279,5.732,27.224,5.732z M27.952,5.527l-0.031,0.062h0.092C28.014,5.547,27.993,5.527,27.952,5.527z M28.608,5.374
		v0.03h0.092c0.034-0.021,0.075-0.03,0.123-0.03V5.342h-0.031L28.608,5.374z M28.978,5.281v0.03h0.092
		c0.075-0.041,0.144-0.061,0.205-0.061V5.219h-0.092C29.121,5.26,29.053,5.281,28.978,5.281z M29.306,5.188v0.031h0.123V5.188
		H29.306z M29.521,5.137v0.021h0.062l0.81-0.175v-0.03H30.3C29.876,5.076,29.617,5.137,29.521,5.137z M30.628,4.44v0.062h0.031
		c0.041,0,0.062-0.021,0.062-0.062H30.628z M30.782,4.409V4.44h0.031c0.109-0.021,0.202-0.031,0.277-0.031v-0.03
		c0-0.027-0.031-0.058-0.092-0.093h-0.031C30.885,4.368,30.823,4.409,30.782,4.409z M31.059,4.225v0.03
		c0,0.027,0.048,0.068,0.144,0.123c0.041-0.021,0.072-0.03,0.092-0.03l-0.062-0.093h0.062l0.215,0.062
		c0.041-0.021,0.072-0.031,0.092-0.031v-0.03H31.51v-0.03c0-0.041,0.051-0.062,0.154-0.062V4.112
		C31.466,4.125,31.264,4.163,31.059,4.225z M31.09,4.532h0.082v0.062h-0.021C31.11,4.594,31.09,4.573,31.09,4.532z M31.664,4.194
		v0.062h0.144V4.194H31.664z"/>
	<path fill="#FFFFFF" d="M41.128,3.118c0,0.014,0.055,0.064,0.164,0.153v0.071c-0.082,0.09-0.383,0.229-0.902,0.421l-0.062-0.03
		c-0.273,0.205-0.629,0.365-1.066,0.481c0,0.021-0.014,0.03-0.041,0.03c-0.144,0-0.54,0.141-1.189,0.421
		c-0.055,0-0.314,0.106-0.779,0.317c-0.328,0.151-0.564,0.24-0.708,0.268c-0.595,0.273-1.306,0.574-2.133,0.902l0.031,0.061v0.062
		c-0.021,0.068-0.085,0.102-0.195,0.102h-0.031l-0.062-0.03c0,0.021-0.01,0.052-0.031,0.093l-0.062-0.031h-0.072l0.031,0.062V6.5
		c-0.103,0-0.479,0.141-1.128,0.421l-1.518,0.554c-0.212,0.786-0.557,1.818-1.036,3.097h0.031c0.69-0.287,1.23-0.479,1.62-0.574
		c0.492-0.28,1.183-0.595,2.071-0.943c0,0.021,0.01,0.03,0.031,0.03c0-0.054,0.431-0.225,1.292-0.512
		c0.533-0.26,0.93-0.391,1.189-0.391h0.031l0.226,0.031l-0.031-0.062c0.253-0.13,0.427-0.194,0.523-0.194
		c-0.027,0.068-0.092,0.102-0.195,0.102V8.09h0.123c0.198-0.089,0.373-0.133,0.523-0.133l0.031,0.061
		c0.123-0.026,0.208-0.058,0.256-0.092h0.031v0.133h0.031l0.103-0.071h0.164v0.071c-0.041,0-0.096,0.031-0.164,0.093l0.031,0.062
		c0,0.096-0.376,0.26-1.128,0.492v0.031h0.092c0.308-0.089,0.492-0.154,0.554-0.195l0.062,0.031c0-0.034,0.031-0.068,0.092-0.104
		l0.133,0.072c0-0.068,0.021-0.103,0.062-0.103h0.031c0,0.034,0.034,0.079,0.103,0.134c-0.041,0-0.301,0.119-0.779,0.358
		c-0.472,0.198-0.762,0.305-0.872,0.317V9.28h0.072c0.021,0,0.051-0.01,0.092-0.031l0.133,0.031
		c0.137-0.021,0.308-0.075,0.513-0.164l0.031,0.072v0.03l-0.318,0.093c0-0.021-0.01-0.031-0.031-0.031
		c0,0.021-0.014,0.031-0.041,0.031l0.041,0.071v0.03c-0.048,0-0.308,0.131-0.779,0.391c-0.068,0-0.284,0.105-0.646,0.317v0.03h0.031
		l0.164-0.03c-0.123,0.109-0.243,0.164-0.359,0.164l0.031,0.062v0.031l-0.092-0.062c-0.055,0.041-0.109,0.062-0.164,0.062
		l0.031,0.071v0.03l-0.092-0.071h-0.062v0.071h-0.103v-0.071c0.014,0,0.154-0.052,0.42-0.153v-0.031h-0.062
		c-0.438,0.123-1.073,0.369-1.907,0.738v0.062h0.031c0.055,0,0.14-0.03,0.256-0.093v0.031c0,0.034-0.171,0.12-0.513,0.256
		c0,0.11-0.581,0.38-1.743,0.811c0-0.021-0.01-0.031-0.031-0.031c-0.103,0.145-0.448,0.295-1.036,0.451
		c-0.841,0.315-1.261,0.51-1.261,0.585c-0.581,1.183-0.872,1.794-0.872,1.835h0.031l3.517-1.354c0,0.021,0.014,0.031,0.041,0.031
		c0-0.068,0.256-0.188,0.769-0.359c0.82-0.361,1.381-0.577,1.682-0.646c0.041,0.021,0.085,0.03,0.133,0.03
		c0.021,0,0.051-0.01,0.092-0.03l0.062,0.03c0.28-0.082,0.52-0.177,0.718-0.287l0.031,0.062c-0.089,0.034-0.133,0.068-0.133,0.102
		h0.062l0.103-0.061l0.092,0.061c0.082-0.041,0.171-0.061,0.267-0.061c-0.027,0.123-0.062,0.184-0.103,0.184l-0.031-0.061h0.062
		c0-0.041-0.021-0.062-0.062-0.062c0,0.056-0.044,0.097-0.133,0.123l0.072,0.134c-0.26,0.116-0.54,0.267-0.841,0.451
		c-0.602,0.198-0.902,0.328-0.902,0.39h0.031l0.995-0.39h0.072l0.062,0.103c0,0.055-0.096,0.096-0.287,0.123l0.031,0.072
		c-0.116,0.075-0.567,0.276-1.354,0.604c0,0.048,0.031,0.071,0.092,0.071c0.547-0.218,0.837-0.328,0.872-0.328l0.031,0.062
		l-1.774,0.871l-1.354,0.646c-0.185,0-0.68,0.164-1.487,0.492c0,0.041-0.185,0.157-0.554,0.348v0.041
		c0.089-0.026,0.164-0.061,0.226-0.102H29.5v0.061c-0.123,0.049-0.185,0.104-0.185,0.164c-0.027,0-0.041-0.01-0.041-0.03
		c-0.082,0.021-0.157,0.03-0.226,0.03l0.031,0.062v0.041l-0.092-0.072h-0.031c0,0.13-0.27,0.271-0.81,0.42
		c-0.711,0.274-1.066,0.459-1.066,0.555c-0.137,0.28-0.253,0.43-0.349,0.451l-0.164-0.031c0,0.041-0.021,0.062-0.062,0.062h-0.072
		c0-0.075-0.106-0.171-0.318-0.287c0-0.034-0.055-0.078-0.164-0.134c0-0.108-0.031-0.164-0.092-0.164l-0.236,0.134h-0.031V17.36
		c0.116-0.191,0.191-0.355,0.226-0.492c0-0.075-0.085-0.126-0.256-0.154l-0.031-0.071l0.031-0.062
		c-0.109-0.075-0.195-0.205-0.256-0.39v-0.062c0.055-0.089,0.355-0.239,0.902-0.451c0.048-0.171,0.147-0.345,0.297-0.523h0.031
		l-0.031-0.061c0.403-0.506,0.66-0.991,0.769-1.457c-0.082,0.028-0.157,0.062-0.226,0.104c-0.239-0.075-0.475-0.26-0.708-0.555
		c-0.321-0.341-0.482-0.566-0.482-0.676l-0.041-0.164c0.308-0.239,1.183-0.571,2.625-0.995c0.089,0,0.314-0.529,0.677-1.589
		c0.15-0.294,0.246-0.54,0.287-0.738l0.062-0.031l-0.031-0.062c0.055,0,0.15-0.29,0.287-0.872c-0.103,0.062-0.188,0.093-0.256,0.093
		h-0.092c-0.451-0.171-0.731-0.331-0.841-0.481V7.639c0-0.082,0.537-0.297,1.61-0.646l0.164-0.225V6.634l-0.062-0.093
		c0.007-0.047,0.027-0.071,0.062-0.071c0,0.021,0.01,0.03,0.031,0.03c0.062-0.102,0.106-0.153,0.133-0.153
		c0.103,0,0.318,0.096,0.646,0.287h0.031c1.518-0.52,3.961-1.456,7.332-2.81C39.871,3.353,40.752,3.118,41.128,3.118z
		 M33.602,13.607c0.007,0.048,0.031,0.071,0.072,0.071l0.031-0.071H33.602z M35.284,13.033v0.03c0,0.041-0.021,0.062-0.062,0.062
		h-0.164C35.058,13.078,35.133,13.046,35.284,13.033z M36.063,10.028v0.031c0,0.041-0.024,0.062-0.072,0.062h-0.092v-0.062
		C35.974,10.059,36.029,10.049,36.063,10.028z M36.514,8.286c0.007,0.041,0.027,0.061,0.062,0.061l0.031-0.061H36.514z
		 M36.771,8.829V8.86h0.031l0.164-0.031V8.767h-0.031C36.866,8.808,36.812,8.829,36.771,8.829z M37.642,9.024h0.103
		c0,0.048-0.055,0.078-0.164,0.092V9.084C37.587,9.043,37.608,9.024,37.642,9.024z"/>
	<path fill="#FFFFFF" d="M46.696,3.168h0.851c0.369,0.007,0.554,0.031,0.554,0.072L48.163,3.2c0.068,0.041,0.321,0.096,0.759,0.164
		c0.731,0.301,1.189,0.663,1.374,1.086c0.349,0.548,0.523,0.94,0.523,1.18c-0.116,0.54-0.902,1.237-2.358,2.092
		c-0.964,0.547-2.239,1.169-3.825,1.866c-1.682,0.807-2.587,1.21-2.717,1.21v0.031c0.068,0.075,0.417,0.263,1.046,0.563
		c0,0.027,0.284,0.212,0.851,0.554l0.943,0.688c0.8,0.766,1.347,1.356,1.641,1.773c0.889,1.278,1.401,2.26,1.538,2.943
		c-0.089,0.089-0.174,0.133-0.256,0.133c-0.219,0-0.362-0.154-0.431-0.461c-0.109-0.116-0.164-0.191-0.164-0.227
		c0-0.041-0.085-0.164-0.256-0.369c-0.28-0.771-0.653-1.395-1.118-1.865c-0.314-0.396-0.762-0.82-1.343-1.271
		c-1.401-0.909-2.451-1.422-3.148-1.539l-0.851,1.405c-0.424,0.561-1.101,1.521-2.03,2.882c-0.048,0-0.342,0.362-0.882,1.086
		c-0.246,0.466-0.465,0.715-0.656,0.749l-0.062-0.134l-0.062,0.031h-0.041c-0.062-0.082-0.147-0.146-0.256-0.195
		c0-0.149-0.099-0.225-0.297-0.225c0-0.048-0.031-0.113-0.092-0.195l-0.072,0.031h-0.062c-0.075-0.145-0.174-0.264-0.297-0.359
		c0.137-0.157,0.236-0.236,0.297-0.236v-0.03l-0.031-0.062c0.021,0,0.031-0.01,0.031-0.031l0.062,0.031
		c0.034,0,0.068-0.034,0.103-0.103c-0.021-0.041-0.031-0.071-0.031-0.093c0.068-0.095,0.154-0.149,0.256-0.164v-0.03
		c-0.021-0.048-0.031-0.082-0.031-0.103c0.109,0,0.273-0.164,0.492-0.492c0.089-0.082,0.188-0.222,0.297-0.42
		c0.034,0,0.12-0.145,0.256-0.432c0.103-0.026,0.267-0.3,0.492-0.82c0.041,0,0.106-0.085,0.195-0.256v-0.041h-0.062v-0.062h0.031
		c0.041,0.021,0.075,0.03,0.103,0.03c0.068-0.19,0.174-0.32,0.318-0.389c0-0.068,0.109-0.188,0.328-0.359
		c0.007-0.15,0.096-0.324,0.267-0.523c-0.021,0-0.031-0.01-0.031-0.03c0.048-0.007,0.212-0.226,0.492-0.656
		c0.048,0,0.079-0.064,0.092-0.194c0.219-0.186,0.328-0.35,0.328-0.492c-0.021-0.096-0.13-0.229-0.328-0.4
		c-0.089-0.109-0.133-0.195-0.133-0.256v-0.072c0-0.082,0.164-0.146,0.492-0.195c0.615-0.184,0.923-0.348,0.923-0.492
		c0.048,0,0.212-0.238,0.492-0.717c0.26-0.444,0.499-0.749,0.718-0.913V7.783l-0.031-0.062h0.092L42.01,7.66
		c0-0.123,0.065-0.212,0.195-0.267c0-0.068,0.089-0.222,0.267-0.461c0.308-0.438,0.602-0.937,0.882-1.498
		c-0.021,0-0.031-0.013-0.031-0.041c-0.622,0.179-1.408,0.441-2.358,0.79c-1.135,0.499-1.781,0.749-1.938,0.749
		c-0.191-0.041-0.321-0.127-0.39-0.257c-0.041-0.178-0.14-0.298-0.297-0.358c0-0.13-0.085-0.209-0.256-0.236V6.049
		c0.021,0,0.031-0.01,0.031-0.03c-0.062,0-0.106-0.099-0.133-0.298c0.075-0.061,0.393-0.181,0.954-0.358
		c1.299-0.588,2.499-1.025,3.599-1.312c0.896-0.191,1.442-0.352,1.641-0.481c0.096,0,0.181-0.034,0.256-0.104h0.041
		c0.021,0,0.031,0.011,0.031,0.031l0.062-0.031c0.273,0.021,0.417,0.031,0.431,0.031c0.267-0.089,0.506-0.133,0.718-0.133
		l-0.031-0.062l0.062-0.03v0.093C46.324,3.275,46.642,3.209,46.696,3.168z M37.652,13.842v0.072c0,0.041-0.021,0.062-0.062,0.062
		v-0.062C37.598,13.867,37.618,13.842,37.652,13.842z M38.052,13.29h0.031c0,0.034-0.034,0.068-0.103,0.102V13.35
		C37.987,13.309,38.011,13.29,38.052,13.29z M38.832,12.141v0.071c0,0.041-0.021,0.062-0.062,0.062v-0.062
		C38.777,12.165,38.797,12.141,38.832,12.141z M39.324,11.422h0.031c-0.048,0.213-0.222,0.451-0.523,0.719v-0.062L39.324,11.422z
		 M39.59,11.034h0.031c-0.027,0.15-0.072,0.225-0.133,0.225c0-0.02-0.01-0.03-0.031-0.03C39.505,11.098,39.549,11.034,39.59,11.034z
		 M46.501,4.778V4.737l-1.415,0.268h-0.092v0.03c0.082,0.13,0.137,0.239,0.164,0.328l-1.507,2.748c-0.027,0-0.106,0.1-0.236,0.298
		h0.072c0.485-0.26,1.053-0.51,1.702-0.749c0.766-0.41,1.453-0.813,2.061-1.21h-0.031c-0.014,0-0.157,0.051-0.431,0.154
		c0.15-0.171,0.314-0.257,0.492-0.257c0.007,0.041,0.031,0.062,0.072,0.062h0.031c0.041,0,0.062-0.021,0.062-0.062
		c0-0.021-0.01-0.03-0.031-0.03c0.171-0.205,0.608-0.555,1.312-1.047c0-0.041,0.14-0.194,0.42-0.461V4.707h-0.031
		c-0.362-0.041-0.602-0.062-0.718-0.062C47.674,4.645,47.042,4.69,46.501,4.778z M47.804,6.122h0.072
		c0.041,0,0.062-0.023,0.062-0.072h-0.062C47.828,6.057,47.804,6.081,47.804,6.122z"/>
	<path fill="#FFFFFF" d="M53.659,3.077l0.062,0.03l0.072-0.03c0.342,0.102,0.67,0.342,0.984,0.717v0.369h0.041
		c0.164-0.683,0.338-1.025,0.523-1.025h0.031v0.031l0.072-0.031h0.062c0.273,0.205,0.461,0.404,0.564,0.596
		c0.178,0.137,0.267,0.235,0.267,0.297C56,5.021,55.549,6.023,54.981,7.034c0.062,0.685,0.092,1.334,0.092,1.949
		c0,0.02,0.014,0.051,0.041,0.092c0,0.027-0.014,0.041-0.041,0.041l0.041,0.164c0.007,1.504,0.181,3.572,0.523,6.203h0.031
		c0.273-0.792,0.516-1.332,0.728-1.619l-0.031-0.062c0.26-0.635,0.458-0.987,0.595-1.056l-0.031-0.071l0.39-0.719l-0.031-0.071
		c0.068-0.041,0.267-0.393,0.595-1.056l0.995-1.846c0.28-0.678,0.564-1.207,0.851-1.59c0.485-0.8,0.861-1.47,1.128-2.01
		c0.062-0.027,0.191-0.215,0.39-0.564h0.072V4.85c-0.082,0.089-0.161,0.232-0.236,0.431c0.226-0.308,0.369-0.462,0.431-0.462
		c0-0.054,0.089-0.153,0.267-0.297h0.031c0,0.082-0.044,0.182-0.133,0.297v0.104c0.034,0,0.202-0.178,0.502-0.533l0.092-0.062
		c0.048,0.008,0.072,0.028,0.072,0.062V4.46L62.18,4.727v0.031l0.195-0.164v0.092L62.6,4.46c0,0.021,0.014,0.03,0.041,0.03
		L62.6,4.553c0,0.027,0.089,0.071,0.267,0.133v0.103l-0.103,0.194v0.031h0.041c0.007-0.075,0.051-0.14,0.133-0.195H63V4.85
		l-0.82,1.486c-2.358,4.137-3.989,7.373-4.891,9.711c-0.403,1.094-0.721,1.699-0.954,1.814c-0.157,0.021-0.246,0.031-0.267,0.031
		c-0.239,0-0.458-0.133-0.656-0.4c-0.253-0.149-0.42-0.225-0.502-0.225c-0.219-0.227-0.328-0.469-0.328-0.729
		c-0.13-0.52-0.195-0.827-0.195-0.923l-0.072,0.03c-0.068,0-0.133-0.352-0.195-1.056c-0.198-1.224-0.297-1.938-0.297-2.144
		l0.031-0.071c-0.021-0.171-0.041-0.257-0.062-0.257l0.031-0.164c-0.021-0.341-0.065-0.652-0.133-0.933V10.93l-0.062-0.03
		l0.031-0.399c0-0.048-0.01-0.093-0.031-0.134l0.031-0.062c-0.041-0.075-0.062-0.133-0.062-0.174c0.041,0,0.062-0.031,0.062-0.093
		l-0.031-0.134l0.031-0.071l-0.031-0.194V9.577c0-0.02,0.01-0.03,0.031-0.03c-0.021-0.027-0.031-0.116-0.031-0.267
		c-2.249,3.302-3.746,5.578-4.491,6.829c-0.396,0.745-0.595,1.152-0.595,1.22c0.021,0.049,0.031,0.082,0.031,0.104
		c-0.021,0-0.031,0.01-0.031,0.03c0.041,0.007,0.062,0.03,0.062,0.071c-0.089,0.22-0.219,0.328-0.39,0.328
		c-0.246,0-0.4-0.078-0.461-0.235c0-0.096-0.099-0.16-0.297-0.194c-0.062-0.157-0.171-0.236-0.328-0.236
		c0-0.027-0.079-0.137-0.236-0.328v-0.062c0.362-0.937,0.824-1.784,1.384-2.543c0.075-0.048,0.253-0.311,0.533-0.79
		c0.048,0,0.232-0.287,0.554-0.861c0.116-0.218,0.328-0.516,0.636-0.892c0-0.137,0.109-0.27,0.328-0.399l-0.031-0.164
		c0.034,0,0.232-0.253,0.595-0.76c0.226-0.246,0.554-0.717,0.984-1.414c0-0.082,0.144-0.346,0.431-0.79
		c0-0.075,0.164-0.308,0.492-0.697c0-0.055,0.133-0.242,0.4-0.563c0-0.089,0.055-0.154,0.164-0.195
		c0.007,0.041,0.027,0.062,0.062,0.062l0.236-0.328c-0.068-0.417-0.133-1.21-0.195-2.379h0.031L53.464,4.03
		c0-0.369-0.034-0.632-0.103-0.789c0.021,0,0.109-0.055,0.267-0.164H53.659z M51.382,9.833v0.041
		c0.089-0.034,0.133-0.068,0.133-0.103h-0.072C51.403,9.779,51.382,9.799,51.382,9.833z M53.659,3.793
		c0.021,0.049,0.031,0.082,0.031,0.104h0.031V3.793H53.659z M53.659,3.999c0.021,0.035,0.031,0.079,0.031,0.134h0.031V3.958
		L53.659,3.999z M54.12,14.263v0.03c0.007,0.049,0.027,0.072,0.062,0.072v-0.103H54.12z M57.945,10.961v0.031
		c0.068-0.027,0.167-0.202,0.297-0.523C58.167,10.531,58.068,10.695,57.945,10.961z M60.129,6.901h0.031
		c0.048,0,0.072-0.021,0.072-0.062V6.798C60.197,6.798,60.163,6.833,60.129,6.901z M60.262,6.634c0,0.027-0.01,0.062-0.031,0.103
		v0.031h0.031c0-0.034,0.021-0.079,0.062-0.134H60.262z M60.621,6.008c0,0.028-0.075,0.172-0.226,0.432v0.03h0.031
		c0.15-0.26,0.226-0.403,0.226-0.431V6.008H60.621z M61.124,5.844L61.052,6.04c0.034,0,0.079-0.064,0.133-0.195H61.124z
		 M61.482,5.25v0.061c0.034,0,0.068-0.03,0.103-0.092V5.147C61.551,5.147,61.517,5.182,61.482,5.25z M62.241,4.85v0.041
		c0.041,0,0.062-0.023,0.062-0.072v-0.03C62.262,4.795,62.241,4.816,62.241,4.85z M62.569,5.281H62.6
		c0.034,0,0.079-0.064,0.133-0.194V5.055C62.706,5.055,62.651,5.13,62.569,5.281z"/>
	<path fill="#FFFFFF" d="M71.265,3.168c0.308,0,0.533,0.048,0.677,0.144c0.526,0.424,0.793,0.66,0.8,0.708
		c0,0.246-0.171,0.813-0.513,1.701c-0.171,0.391-0.427,1.077-0.769,2.062l-0.051,0.093v0.051c0.301-0.075,0.489-0.13,0.564-0.164
		l0.144,0.021c0-0.034,0.065-0.062,0.195-0.082c0.041,0.021,0.068,0.03,0.082,0.03c0-0.047,0.198-0.105,0.595-0.174
		c0.191-0.075,0.373-0.123,0.543-0.144v0.03l0.051-0.03h0.062l0.195,0.03c0-0.033,0.075-0.061,0.226-0.082
		c0.062-0.026,0.092-0.064,0.092-0.112l0.164-0.03c0.103,0.02,0.178,0.03,0.226,0.03v0.03c0,0.035-0.027,0.052-0.082,0.052v0.03
		h0.082c0.041,0,0.062-0.02,0.062-0.061c-0.021,0-0.031-0.007-0.031-0.021c0.068-0.054,0.164-0.092,0.287-0.112
		c0.273,0.075,0.434,0.112,0.482,0.112c0-0.041,0.017-0.061,0.051-0.061h0.062c0.103,0,0.167,0.037,0.195,0.112
		c-0.075,0.027-0.113,0.055-0.113,0.082c0.021,0,0.031,0.011,0.031,0.03C75.53,7.465,75.5,7.475,75.479,7.475l-0.133-0.031
		l0.021,0.062c0,0.034-0.017,0.051-0.051,0.051h-0.144v0.031c0.021,0.034,0.031,0.061,0.031,0.082l-0.062,0.03h-0.144v0.062h0.031
		c0.041-0.021,0.072-0.031,0.092-0.031v0.031c0.062-0.041,0.116-0.062,0.164-0.062v0.03c0,0.035-0.215,0.1-0.646,0.195
		c-0.15,0.027-0.226,0.075-0.226,0.144H74.32l-0.082-0.062c-0.055,0.055-0.15,0.092-0.287,0.113v0.03
		c0.034,0,0.092,0.038,0.174,0.112c0.034-0.02,0.062-0.03,0.082-0.03v0.03c0,0.028-0.027,0.056-0.082,0.082l-0.062-0.02
		c0,0.034-0.017,0.051-0.051,0.051h-0.144V8.327h0.174V8.295c0-0.027-0.038-0.055-0.113-0.082c0,0.034-0.021,0.051-0.062,0.051
		h-0.051V8.182h-0.062v0.031l0.031,0.051l-0.062,0.031h-0.051V8.234h-0.113v0.062l0.051-0.031h0.031v0.031
		c0,0.041-0.198,0.1-0.595,0.174c0.007,0.035,0.024,0.052,0.051,0.052c0.075-0.034,0.219-0.071,0.431-0.112h0.031v0.061
		c-0.021,0-0.051,0.008-0.092,0.021L73.5,8.551v0.031l-0.082-0.062h-0.031c-0.109,0.014-0.164,0.041-0.164,0.082h0.082V8.551h0.082
		v0.082c-0.157,0.021-0.328,0.069-0.513,0.145c-0.034-0.021-0.062-0.031-0.082-0.031c0,0.041-0.017,0.062-0.051,0.062l-0.092-0.062
		l-0.051,0.031l-0.062-0.031l-0.39,0.144c-0.041-0.021-0.072-0.03-0.092-0.03c-0.13,0.082-0.195,0.14-0.195,0.174
		c-0.328,0.075-0.554,0.161-0.677,0.256l0.031,0.052v0.062c-0.021,0.055-0.079,0.082-0.174,0.082l-0.144-0.031
		c0,0.062-0.055,0.11-0.164,0.145l-0.708,1.701l-1.446,3.538c-0.089,0.144-0.297,0.633-0.625,1.466
		c-0.417,0.814-0.625,1.286-0.625,1.416c-0.062,0.116-0.109,0.174-0.144,0.174h-0.021c-0.041,0-0.062-0.027-0.062-0.082
		l-0.164,0.082c0-0.096-0.058-0.154-0.174-0.174c0-0.041-0.058-0.096-0.174-0.164c0,0.027-0.027,0.055-0.082,0.082
		c0-0.027-0.038-0.093-0.113-0.195c-0.062,0.034-0.116,0.051-0.164,0.051h-0.031v-0.051c0-0.041,0.01-0.078,0.031-0.113
		c-0.027-0.136-0.068-0.205-0.123-0.205c0.253-0.943,0.451-1.469,0.595-1.578c-0.034,0-0.051-0.021-0.051-0.062
		c0.062,0,0.126-0.102,0.195-0.307l0.062-0.031l-0.031-0.051v-0.093c0.246-0.417,0.502-0.991,0.769-1.723l-0.031-0.062
		c0.15-0.28,0.311-0.677,0.482-1.189c0.096-0.075,0.236-0.393,0.42-0.953c0.089-0.089,0.195-0.335,0.318-0.738
		c0.055-0.075,0.082-0.15,0.082-0.227c-0.041,0.015-0.068,0.021-0.082,0.021c0-0.014-0.01-0.021-0.031-0.021
		c0,0.035-0.021,0.052-0.062,0.052h-0.021l-0.092-0.052h-0.031l-0.082,0.052c-0.034,0-0.051-0.027-0.051-0.082
		c-0.205,0-0.516,0.086-0.933,0.257l0.051,0.143c-0.328,0.131-0.66,0.243-0.995,0.339c-0.198,0.048-0.318,0.086-0.359,0.112h-0.031
		l-0.092-0.061h-0.021l0.021,0.061l-0.051,0.031c0-0.041-0.021-0.062-0.062-0.062h-0.051l0.031,0.062v0.051l-1.784,0.564
		c-0.171,0-0.55,0.312-1.138,0.934c-1.969,1.791-3.326,2.782-4.071,2.973c-0.048,0-0.085,0.011-0.113,0.031
		c-0.212-0.034-0.42-0.146-0.625-0.338c-0.048-0.021-0.161-0.096-0.338-0.227c0.021,0,0.031-0.01,0.031-0.03
		c-0.041,0-0.062-0.017-0.062-0.052v-0.092c0.027-0.062,0.403-0.267,1.128-0.615c0.8-0.608,1.442-1.139,1.928-1.59v-0.03
		c-0.643,0.171-1.189,0.294-1.641,0.369c-0.034-0.021-0.072-0.03-0.113-0.03c0,0.048-0.048,0.078-0.144,0.092l-0.031-0.062
		c0.021,0,0.031-0.011,0.031-0.03c-0.137,0-0.325-0.13-0.564-0.391l-0.174-0.03h-0.113v-0.03l0.062-0.082v-0.031
		c-0.075,0-0.15-0.058-0.226-0.174v-0.113c0.191-0.144,0.766-0.321,1.723-0.533c0.287-0.123,0.882-0.301,1.784-0.533
		c0.369-0.157,0.749-0.28,1.138-0.369c0-0.034,0.075-0.072,0.226-0.113V10.5c0.314-0.075,0.561-0.227,0.738-0.451
		c0.096,0,0.15-0.055,0.164-0.164c0.048,0,0.171-0.116,0.369-0.35c0.082,0,0.14-0.044,0.174-0.133
		c0.089-0.13,0.369-0.413,0.841-0.852l1.477-1.445c0.595-0.547,0.906-0.82,0.933-0.82c0.171-0.212,0.444-0.468,0.82-0.77
		c0.034,0.021,0.062,0.031,0.082,0.031c0.041-0.109,0.079-0.164,0.113-0.164c0,0.014,0.01,0.021,0.031,0.021
		c0-0.075,0.068-0.112,0.205-0.112L68.804,5.24v-0.03c0.007-0.041,0.024-0.062,0.051-0.062c0,0.021,0.01,0.031,0.031,0.031
		c0.116-0.13,0.174-0.205,0.174-0.226l0.051,0.03h0.031c0-0.149,0.338-0.481,1.015-0.994c0.096-0.13,0.277-0.29,0.543-0.482
		C70.783,3.418,70.971,3.305,71.265,3.168z M70.639,5.465V5.383c-0.738,0.581-2.191,1.921-4.358,4.02H66.25v0.051
		c1.668-0.492,2.734-0.82,3.199-0.984c0-0.02,0.01-0.03,0.031-0.03s0.031,0.011,0.031,0.03c0.075,0,0.226-0.331,0.451-0.994
		c0.28-0.677,0.42-1.046,0.42-1.107c-0.027,0-0.082,0.106-0.164,0.318h-0.031c0-0.021-0.01-0.031-0.031-0.031
		c0.109-0.28,0.178-0.431,0.205-0.451l-0.031-0.062v-0.03c0.055-0.048,0.14-0.253,0.256-0.615L70.639,5.465v0.031
		c0,0.102-0.055,0.27-0.164,0.502V6.09c0.027,0,0.14-0.283,0.338-0.851h-0.031L70.639,5.465z M68.947,5.035h0.021
		c0,0.027-0.027,0.059-0.082,0.093V5.096C68.893,5.055,68.913,5.035,68.947,5.035z M71.039,9.423h0.051
		c0.041,0,0.062-0.017,0.062-0.052v-0.03h-0.031C71.094,9.341,71.066,9.369,71.039,9.423z M71.716,8.829h-0.031l-0.051-0.021
		c0,0.034-0.048,0.071-0.144,0.112h-0.082l-0.113-0.092V8.86l0.031,0.061l-0.062,0.021c0-0.034-0.017-0.052-0.051-0.052h-0.031
		l0.031,0.052c-0.041,0.007-0.062,0.027-0.062,0.061v0.031l0.708-0.205c0-0.034-0.021-0.051-0.062-0.051L71.716,8.829z M71.89,8.808
		h0.051c0.041-0.021,0.072-0.03,0.092-0.03V8.747h-0.092C71.907,8.753,71.89,8.774,71.89,8.808z M72.034,8.715
		c0.021,0,0.048,0.011,0.082,0.031h0.051V8.715c-0.055,0-0.082-0.017-0.082-0.051C72.051,8.671,72.034,8.689,72.034,8.715z
		 M72.116,8.829h0.082V8.778h-0.031C72.133,8.785,72.116,8.801,72.116,8.829z M72.28,8.665c0.007,0.034,0.027,0.051,0.062,0.051
		l0.031-0.051H72.28z M72.792,8.551v0.031h0.082V8.521C72.84,8.542,72.813,8.551,72.792,8.551z M72.936,8.521h0.082V8.469h-0.031
		C72.953,8.469,72.936,8.487,72.936,8.521z M73.018,8.633h0.031c0.034,0,0.051-0.017,0.051-0.051H73.08
		C73.039,8.583,73.018,8.6,73.018,8.633z M74.156,7.393l-0.031,0.051h0.031c0.034-0.02,0.062-0.03,0.082-0.03V7.393H74.156z
		 M75.428,7.639h0.082v0.062h-0.082V7.639z"/>
</g>
</svg>
